HIERARCHY
ROOT Storm:Solving:Root
{
	OFFSET 0.000000 0.000000 0.000000
	CHANNELS 6 Xposition Yposition Zposition Xrotation Yrotation Zrotation
	JOINT Storm:Solving:L_Clav
	{
		OFFSET 0.000000 0.000000 0.000000
		CHANNELS 6 Xposition Yposition Zposition Xrotation Yrotation Zrotation
		JOINT Storm:Solving:L_Scapula_Joint
		{
			OFFSET 4.000000 0.000000 0.000000
			CHANNELS 6 Xposition Yposition Zposition Xrotation Yrotation Zrotation
			JOINT Storm:Solving:L_Shoulder_Joint
			{
				OFFSET 4.002680 -11.084213 10.770061
				CHANNELS 6 Xposition Yposition Zposition Xrotation Yrotation Zrotation
				JOINT Storm:Solving:L_Elbow_Joint
				{
					OFFSET 2.147804 -15.161020 -8.035202
					CHANNELS 6 Xposition Yposition Zposition Xrotation Yrotation Zrotation
					JOINT Storm:Solving:L_Wrist_Joint
					{
						OFFSET -2.240269 -20.029085 -9.040068
						CHANNELS 6 Xposition Yposition Zposition Xrotation Yrotation Zrotation
						JOINT Storm:Solving:L_Paw_Joint
						{
							OFFSET 0.706234 -5.721245 1.834930
							CHANNELS 6 Xposition Yposition Zposition Xrotation Yrotation Zrotation
							End Site
							{
								OFFSET 1.343818 -3.510090 4.244948
							}
						}
					}
				}
			}
		}
	}
	JOINT Storm:Solving:R_Clav
	{
		OFFSET 0.000000 0.000000 0.000000
		CHANNELS 6 Xposition Yposition Zposition Xrotation Yrotation Zrotation
		JOINT Storm:Solving:R_Scapula_Joint
		{
			OFFSET -4.000000 0.000000 0.000001
			CHANNELS 6 Xposition Yposition Zposition Xrotation Yrotation Zrotation
			JOINT Storm:Solving:NewBone_3
			{
				OFFSET -4.614829 -11.686035 9.889533
				CHANNELS 6 Xposition Yposition Zposition Xrotation Yrotation Zrotation
				JOINT Storm:Solving:R_Elbow_Joint
				{
					OFFSET -0.160743 -16.404388 -5.491836
					CHANNELS 6 Xposition Yposition Zposition Xrotation Yrotation Zrotation
					JOINT Storm:Solving:R_Wrist_Joint
					{
						OFFSET 2.412016 -21.935680 1.190901
						CHANNELS 6 Xposition Yposition Zposition Xrotation Yrotation Zrotation
						JOINT Storm:Solving:R_Paw_Joint
						{
							OFFSET -0.535018 -3.351765 3.806499
							CHANNELS 6 Xposition Yposition Zposition Xrotation Yrotation Zrotation
							End Site
							{
								OFFSET -0.877549 -2.975662 5.252174
							}
						}
					}
				}
			}
		}
	}
	JOINT Storm:Solving:Root_To_Spine_Dummy
	{
		OFFSET 0.000000 0.000000 0.000000
		CHANNELS 6 Xposition Yposition Zposition Xrotation Yrotation Zrotation
		JOINT Storm:Solving:Spine1
		{
			OFFSET 0.000000 -0.000000 -3.827275
			CHANNELS 6 Xposition Yposition Zposition Xrotation Yrotation Zrotation
			JOINT Storm:Solving:Spine2
			{
				OFFSET 0.000001 -0.000004 -16.939260
				CHANNELS 6 Xposition Yposition Zposition Xrotation Yrotation Zrotation
				JOINT Storm:Solving:Spine3
				{
					OFFSET 0.000002 -0.000004 -14.393892
					CHANNELS 6 Xposition Yposition Zposition Xrotation Yrotation Zrotation
					JOINT Storm:Solving:Pelvis_Root
					{
						OFFSET 0.000002 -0.000004 -14.393890
						CHANNELS 6 Xposition Yposition Zposition Xrotation Yrotation Zrotation
						JOINT Storm:Solving:L_Pelvis
						{
							OFFSET 0.000000 0.000000 0.000000
							CHANNELS 6 Xposition Yposition Zposition Xrotation Yrotation Zrotation
							JOINT Storm:Solving:LFemur_Joint
							{
								OFFSET 8.318080 -6.780921 -6.728058
								CHANNELS 6 Xposition Yposition Zposition Xrotation Yrotation Zrotation
								JOINT Storm:Solving:LTibia_Joint
								{
									OFFSET 4.762119 -18.232956 12.109562
									CHANNELS 6 Xposition Yposition Zposition Xrotation Yrotation Zrotation
									JOINT Storm:Solving:LAnkle_Joint
									{
										OFFSET 1.748854 -18.426315 -12.690487
										CHANNELS 6 Xposition Yposition Zposition Xrotation Yrotation Zrotation
										JOINT Storm:Solving:LFoot_Joint
										{
											OFFSET 2.893215 -10.324425 3.420891
											CHANNELS 6 Xposition Yposition Zposition Xrotation Yrotation Zrotation
											End Site
											{
												OFFSET 3.317142 -1.153622 6.178677
											}
										}
									}
								}
							}
						}
						JOINT Storm:Solving:R_Pelvis
						{
							OFFSET 0.000000 0.000000 0.000000
							CHANNELS 6 Xposition Yposition Zposition Xrotation Yrotation Zrotation
							JOINT Storm:Solving:RFemur_Joint
							{
								OFFSET -8.082922 -7.104604 -6.553699
								CHANNELS 6 Xposition Yposition Zposition Xrotation Yrotation Zrotation
								JOINT Storm:Solving:RTibia_Joint
								{
									OFFSET -3.034004 -18.950596 11.551201
									CHANNELS 6 Xposition Yposition Zposition Xrotation Yrotation Zrotation
									JOINT Storm:Solving:RAnkle_Joint
									{
										OFFSET 0.163292 -19.936808 -10.210636
										CHANNELS 6 Xposition Yposition Zposition Xrotation Yrotation Zrotation
										JOINT Storm:Solving:RFoot_Joint
										{
											OFFSET -0.793680 -9.967937 0.101715
											CHANNELS 6 Xposition Yposition Zposition Xrotation Yrotation Zrotation
											End Site
											{
												OFFSET -4.434014 -1.490955 4.525612
											}
										}
									}
								}
							}
						}
					}
				}
			}
		}
	}
	JOINT Storm:Solving:Root_To_Neck
	{
		OFFSET 0.000000 0.000000 0.000000
		CHANNELS 6 Xposition Yposition Zposition Xrotation Yrotation Zrotation
		JOINT Storm:Solving:Neck1
		{
			OFFSET 0.000000 4.185544 5.729186
			CHANNELS 6 Xposition Yposition Zposition Xrotation Yrotation Zrotation
			JOINT Storm:Solving:Neck2
			{
				OFFSET 2.125778 5.862308 7.100437
				CHANNELS 6 Xposition Yposition Zposition Xrotation Yrotation Zrotation
				JOINT Storm:Solving:Head
				{
					OFFSET -4.381103 5.689912 1.801980
					CHANNELS 6 Xposition Yposition Zposition Xrotation Yrotation Zrotation
					JOINT Storm:Solving:Head_End
					{
						OFFSET -9.753127 2.579655 15.562060
						CHANNELS 6 Xposition Yposition Zposition Xrotation Yrotation Zrotation
						End Site
						{
							OFFSET -4.085258 17.259081 -5.421284
						}
					}
				}
			}
		}
	}
	JOINT Storm:Solving:R_Clav_1
	{
		OFFSET 0.000000 0.000000 0.000000
		CHANNELS 6 Xposition Yposition Zposition Xrotation Yrotation Zrotation
		End Site
		{
			OFFSET 0.000000 0.010000 -0.000000
		}
	}
}
MOTION
Frames: 5
Frame Time: 0.041667
-0.711253 57.192722 -181.725479 12.125486 -15.564391 -1.008699 -0.000014 -0.000002 -0.000068 -1.693422 0.139246 -4.699287 4.000004 -0.000001 -0.000070 -3.242877 -1.004734 -3.645571 4.002691 -11.084255 10.770068 -5.100538 -2.649668 -4.774123 2.147810 -15.160995 -8.035209 -18.351356 -9.169281 7.138597 -2.240262 -20.029064 -9.040166 -1.921220 -19.171766 5.570650 0.706240 -5.721220 1.834879 0.338126 0.016129 -0.104576 -0.000014 -0.000002 -0.000068 3.322645 0.241956 4.160126 -4.000004 0.000004 -0.000061 3.378603 -4.517937 -7.216015 -4.614854 -11.686038 9.889532 3.732809 7.052473 12.716134 -0.160745 -16.404375 -5.491841 -6.864033 -0.755114 0.299451 2.412028 -21.935678 1.190884 14.541430 7.987464 -2.477799 -0.535012 -3.351830 3.806481 -16.679764 -1.083380 -3.895390 -0.000014 -0.000002 -0.000068 0.000001 0.000001 -0.000001 -0.000026 0.000005 -3.827317 -12.149885 -5.940166 2.743267 0.000004 -0.000012 -16.939295 -2.879270 7.245646 -7.758248 -0.000002 -0.000021 -14.393866 0.738275 0.127393 -2.132725 -0.000022 0.000018 -14.393984 6.647293 1.376107 2.116173 0.000014 0.000006 0.000069 0.000001 -0.000018 0.000006 8.318089 -6.780920 -6.728041 -7.722904 5.562658 -2.070697 4.762086 -18.232916 12.109603 -1.355750 -0.301339 0.242875 1.748853 -18.426334 -12.690484 -17.342684 -3.403869 3.166297 2.893233 -10.324444 3.420886 9.714197 0.628558 -5.065180 0.000016 0.000011 0.000076 -0.000003 0.000000 0.000010 -8.082929 -7.104605 -6.553699 1.073450 7.126515 -1.335629 -3.033990 -18.950573 11.551151 11.114277 -0.679121 1.938283 0.163298 -19.936771 -10.210625 5.776733 -0.236447 4.481120 -0.793668 -9.967972 0.101685 18.820684 1.662250 17.997140 -0.000014 -0.000002 -0.000068 0.000009 0.000003 -0.000001 0.000012 4.185495 5.729175 -5.310002 3.021694 -0.535477 2.125762 5.862289 7.100408 49.811839 12.658368 -32.960037 -4.381075 5.689900 1.801961 -21.663210 6.755158 7.840162 -9.753133 2.579651 15.562062 0.000012 -0.000004 -0.000005 -0.000014 -0.000002 -0.000068 0.000001 0.000003 -0.000001 
-0.743861 57.147339 -181.341080 12.633121 -15.556859 -1.069040 0.000004 -0.000011 -0.000119 -1.668927 0.123183 -4.220439 3.999999 -0.000017 -0.000014 -3.256994 -1.104370 -3.965595 4.002665 -11.084219 10.770010 -5.079025 -2.692646 -4.880137 2.147803 -15.160979 -8.035258 -18.612607 -8.662331 7.433265 -2.240284 -20.029076 -9.040062 -1.826665 -19.487303 5.524369 0.706240 -5.721254 1.834934 -0.419876 -0.020898 0.129755 0.000004 -0.000011 -0.000119 3.366026 0.192438 3.268345 -4.000019 -0.000004 -0.000032 3.376604 -4.474626 -6.228525 -4.614849 -11.686049 9.889504 4.630697 7.340837 12.340679 -0.160753 -16.404390 -5.491874 -9.465270 -1.049892 0.389022 2.412032 -21.935678 1.190941 16.977072 8.540817 -1.529306 -0.535015 -3.351746 3.806504 -15.448858 -1.042750 -3.599260 0.000004 -0.000011 -0.000119 0.000001 -0.000004 -0.000000 0.000009 0.000016 -3.827306 -12.338884 -6.244334 2.809511 -0.000021 -0.000008 -16.939270 -3.160650 7.488292 -8.114319 -0.000010 0.000009 -14.393957 0.643832 0.161657 -1.840419 0.000009 -0.000008 -14.393873 6.302900 1.818475 2.661641 -0.000010 -0.000001 -0.000072 0.000004 -0.000009 0.000003 8.318119 -6.780937 -6.728019 -6.822979 5.307583 -2.478488 4.762124 -18.232935 12.109555 -1.302977 -0.289499 0.233547 1.748868 -18.426311 -12.690451 -17.518139 -3.446429 2.900132 2.893186 -10.324401 3.420948 9.336646 0.620257 -4.867167 -0.000009 0.000009 -0.000069 -0.000002 -0.000004 0.000013 -8.082932 -7.104608 -6.553669 -0.243046 7.305507 -1.721753 -3.034008 -18.950556 11.551183 14.274912 -0.802259 2.509377 0.163285 -19.936844 -10.210588 5.224703 -0.160665 4.760872 -0.793693 -9.967965 0.101693 23.085652 2.887556 22.062894 0.000004 -0.000011 -0.000119 0.000005 -0.000003 0.000002 0.000001 4.185532 5.729208 -5.243972 3.130288 -0.640903 2.125783 5.862334 7.100460 49.939355 12.491631 -33.220722 -4.381118 5.689951 1.801955 -21.903170 7.002975 7.878869 -9.753138 2.579640 15.562133 0.000007 -0.000004 -0.000004 0.000004 -0.000011 -0.000119 0.000001 -0.000004 0.000000 
-0.770026 57.095848 -180.957657 13.123086 -15.539078 -1.092060 0.000008 0.000002 0.000020 -1.649660 0.108048 -3.746586 3.999980 -0.000002 -0.000020 -3.282257 -1.252093 -4.345918 4.002669 -11.084240 10.770013 -5.056041 -2.619862 -4.835145 2.147808 -15.161031 -8.035209 -18.812569 -8.513518 7.445331 -2.240299 -20.029076 -9.040121 -1.806027 -19.517182 5.523074 0.706229 -5.721240 1.834944 -1.022480 -0.052532 0.315713 0.000008 0.000002 0.000020 3.403744 0.142807 2.399633 -4.000006 0.000011 -0.000112 3.371996 -4.441223 -5.318360 -4.614856 -11.686011 9.889526 5.718034 7.729652 11.955921 -0.160732 -16.404366 -5.491837 -12.610806 -1.411341 0.479328 2.412022 -21.935690 1.190909 20.169964 8.980721 -0.738080 -0.535016 -3.351811 3.806446 -13.997892 -0.986695 -3.251335 0.000008 0.000002 0.000020 -0.000000 -0.000004 -0.000001 -0.000006 -0.000001 -3.827260 -12.535043 -6.499608 2.869324 -0.000003 -0.000016 -16.939287 -3.400558 7.745730 -8.579942 0.000010 -0.000003 -14.393904 0.491195 0.198878 -1.655196 -0.000007 0.000010 -14.393957 6.011823 2.228179 3.360767 0.000006 0.000012 0.000015 0.000004 -0.000011 0.000008 8.318069 -6.780883 -6.728050 -6.004876 5.156023 -2.818737 4.762120 -18.232935 12.109592 -1.225486 -0.272125 0.219832 1.748850 -18.426289 -12.690550 -17.707516 -3.491293 2.607869 2.893198 -10.324392 3.420857 8.906328 0.609210 -4.641550 0.000006 0.000012 0.000027 0.000005 0.000000 0.000007 -8.082901 -7.104617 -6.553662 -1.860723 7.817555 -1.911231 -3.034001 -18.950609 11.551229 17.975615 -0.906142 3.185217 0.163293 -19.936798 -10.210630 5.506285 -0.071011 5.817902 -0.793693 -9.967977 0.101683 24.282868 3.290729 23.202574 0.000008 0.000002 0.000020 0.000007 -0.000003 -0.000000 -0.000014 4.185582 5.729193 -5.208336 3.230992 -0.729082 2.125757 5.862311 7.100449 50.084695 12.291991 -33.528893 -4.381087 5.689879 1.801958 -22.101126 7.266219 7.928612 -9.753145 2.579683 15.562069 0.000006 -0.000003 0.000006 0.000008 0.000002 0.000020 0.000001 -0.000004 0.000000 
-0.805772 57.041138 -180.583496 13.627865 -15.487768 -1.086331 -0.000017 0.000021 -0.000080 -1.671460 0.099957 -3.421173 3.999989 0.000015 -0.000009 -3.314033 -1.434972 -4.502466 4.002681 -11.084185 10.770114 -4.933976 -2.807309 -5.065424 2.147820 -15.161055 -8.035182 -19.107789 -8.066158 7.774269 -2.240267 -20.029083 -9.040034 -1.873512 -19.601856 5.427392 0.706242 -5.721198 1.834911 -1.348649 -0.070499 0.416224 -0.000017 0.000021 -0.000080 3.434297 0.086115 1.434544 -4.000016 0.000030 -0.000003 3.349781 -4.413606 -4.227897 -4.614840 -11.686021 9.889560 7.012476 8.218003 11.363995 -0.160760 -16.404448 -5.491799 -16.443658 -1.857628 0.562366 2.411985 -21.935682 1.190921 23.898408 9.265498 0.205031 -0.535013 -3.351746 3.806482 -11.522821 -0.870777 -2.661293 -0.000017 0.000021 -0.000080 0.000001 0.000009 -0.000000 -0.000001 0.000017 -3.827327 -12.744179 -6.777480 2.951840 -0.000027 0.000012 -16.939278 -3.646086 7.998877 -9.236169 -0.000010 0.000006 -14.393919 0.311983 0.254628 -1.295793 -0.000006 -0.000013 -14.393911 5.712912 2.700578 4.143467 0.000008 0.000023 0.000023 -0.000005 0.000000 0.000002 8.318062 -6.780901 -6.728104 -5.170105 4.947731 -3.279854 4.762147 -18.232918 12.109561 -1.143994 -0.253879 0.205391 1.748848 -18.426334 -12.690524 -17.913269 -3.536086 2.359518 2.893229 -10.324401 3.420890 8.599610 0.600296 -4.480767 0.000003 0.000030 -0.000000 0.000015 0.000009 0.000007 -8.082949 -7.104625 -6.553666 -3.560107 8.027725 -2.100935 -3.033988 -18.950539 11.551190 21.778847 -0.967209 3.885085 0.163292 -19.936699 -10.210599 5.036987 0.117333 7.178097 -0.793711 -9.967934 0.101733 23.065277 2.880926 22.043503 -0.000017 0.000021 -0.000080 0.000009 0.000005 -0.000002 -0.000002 4.185553 5.729171 -5.223026 3.374056 -0.829219 2.125745 5.862303 7.100452 50.252478 12.095349 -33.834025 -4.381081 5.689851 1.801977 -22.316364 7.479979 7.994525 -9.753117 2.579639 15.562048 0.000001 -0.000001 -0.000001 -0.000017 0.000021 -0.000080 0.000002 0.000006 -0.000000 
-0.844235 56.980400 -180.215088 14.116442 -15.417752 -1.037092 -0.000017 -0.000001 0.000064 -1.667147 0.087805 -3.014004 4.000011 0.000016 0.000029 -3.341692 -1.650033 -4.817608 4.002691 -11.084215 10.770119 -4.910056 -2.870277 -5.079210 2.147796 -15.161016 -8.035168 -19.270766 -7.659033 7.831518 -2.240240 -20.029089 -9.040057 -2.009902 -19.707932 5.352675 0.706219 -5.721212 1.834918 -1.773805 -0.094739 0.547124 -0.000017 -0.000001 0.000064 3.408266 0.035926 0.603162 -4.000010 -0.000023 -0.000002 3.259379 -4.508023 -3.316535 -4.614833 -11.685997 9.889549 8.665812 8.465576 10.668604 -0.160741 -16.404413 -5.491795 -21.143030 -2.410723 0.623181 2.412022 -21.935680 1.190984 30.625332 10.159850 1.332572 -0.535023 -3.351771 3.806458 -10.915299 -0.838424 -2.517229 -0.000017 -0.000001 0.000064 -0.000002 0.000003 0.000001 -0.000015 0.000009 -3.827222 -12.964899 -7.037496 3.009466 -0.000011 0.000004 -16.939220 -3.859784 8.244631 -9.879411 0.000011 0.000004 -14.393881 0.121515 0.274471 -1.016772 0.000021 -0.000003 -14.393862 5.369550 3.239597 4.903308 -0.000003 0.000006 -0.000034 -0.000000 -0.000005 0.000009 8.318087 -6.780941 -6.728042 -4.395530 4.724529 -3.646479 4.762123 -18.232939 12.109575 -0.962404 -0.213291 0.173125 1.748864 -18.426376 -12.690432 -18.147290 -3.581679 2.186147 2.893245 -10.324440 3.420949 8.377709 0.593312 -4.364458 -0.000001 0.000011 -0.000023 0.000003 -0.000011 0.000015 -8.082942 -7.104582 -6.553741 -5.297319 7.769198 -2.025517 -3.033993 -18.950558 11.551171 25.465109 -0.981971 4.565767 0.163287 -19.936804 -10.210615 4.357569 0.164278 7.261641 -0.793687 -9.967932 0.101733 21.926910 2.522260 20.959127 -0.000017 -0.000001 0.000064 -0.000000 0.000005 0.000001 0.000009 4.185523 5.729208 -5.267202 3.523615 -0.922590 2.125761 5.862274 7.100399 50.519019 11.867769 -34.194731 -4.381052 5.689849 1.801943 -22.604897 7.606064 8.124752 -9.753138 2.579659 15.562049 0.000007 -0.000003 -0.000003 -0.000017 -0.000001 0.000064 -0.000002 0.000003 -0.000000 
